<svg width="94" height="56" viewBox="0 0 94 56" fill="none" xmlns="http://www.w3.org/2000/svg" xmlns:xlink="http://www.w3.org/1999/xlink">
<path d="M91.673,24.427C76.811,8.312 61.065,-0.083 46.055,-0.083C31.045,-0.083 15.3,8.312 0.437,24.427C-1.035,25.917 -1.035,28.219 0.437,29.708C15.3,45.687 31.045,54.083 46.055,54.083C61.065,54.083 76.811,45.687 91.673,29.573C92.998,28.083 92.998,25.917 91.673,24.427ZM46.055,48.667C33.253,48.667 18.979,40.948 5.735,27C18.979,13.052 33.253,5.333 46.055,5.333C58.858,5.333 73.132,13.052 86.376,27C73.132,40.948 58.858,48.667 46.055,48.667ZM46.055,10.75C36.343,10.75 28.396,18.062 28.396,27C28.396,35.937 36.343,43.25 46.055,43.25C55.767,43.25 63.714,35.937 63.714,27C63.714,18.062 55.767,10.75 46.055,10.75ZM46.055,37.833C39.58,37.833 34.283,32.958 34.283,27C34.283,21.042 39.58,16.167 46.055,16.167C52.53,16.167 57.828,21.042 57.828,27C57.828,32.958 52.53,37.833 46.055,37.833Z" clip-rule="evenodd" fill-rule="evenodd" fill="#032D23"/>
</svg>
