<svg width="64" height="92" viewBox="0 0 64 92" fill="none" xmlns="http://www.w3.org/2000/svg" xmlns:xlink="http://www.w3.org/1999/xlink">
<path d="M4,60L0,60C0,61.061 0.421,62.078 1.172,62.828L4,60ZM4,32L4,28C1.791,28 0,29.791 0,32L4,32ZM60,32L60,36C62.209,36 64,34.209 64,32L60,32ZM60,4L64,4C64,1.791 62.209,0 60,0L60,4ZM4,4L4,0C2.382,0 0.924,0.975 0.304,2.469C-0.315,3.964 0.028,5.684 1.172,6.828L4,4ZM60,60L60,64C61.618,64 63.076,63.025 63.696,61.531C64.315,60.036 63.972,58.316 62.828,57.172L60,60ZM32,88L29.172,90.828C30.316,91.972 32.036,92.315 33.531,91.696C35.025,91.076 36,89.618 36,88L32,88ZM8,60L8,32L0,32L0,60L8,60ZM4,36L60,36L60,28L4,28L4,36ZM64,32L64,4L56,4L56,32L64,32ZM60,0L4,0L4,8L60,8L60,0ZM1.172,6.828L57.172,62.828L62.828,57.172L6.828,1.172L1.172,6.828ZM60,56L32,56L32,64L60,64L60,56ZM1.172,62.828L29.172,90.828L34.828,85.172L6.828,57.172L1.172,62.828ZM36,88L36,60L28,60L28,88L36,88ZM4,64L32,64L32,56L4,56L4,64Z" fill="#1E1E1E"/>
</svg>
