<svg width="2584" height="1460" viewBox="0 0 2584 1460" fill="none" xmlns="http://www.w3.org/2000/svg" xmlns:xlink="http://www.w3.org/1999/xlink">
<g opacity="0.8" style="isolation:isolate">
<path d="M0,87C0,52.365 0,35.047 8.21,22.549C11.96,16.84 16.84,11.96 22.549,8.21C35.047,0 52.365,0 87,0L2497,0C2531.64,0 2548.96,0 2561.46,8.21C2567.16,11.96 2572.04,16.84 2575.8,22.549C2584,35.047 2584,52.365 2584,87L2584,1373C2584,1407.636 2584,1424.954 2575.8,1437.452C2572.04,1443.16 2567.16,1448.04 2561.46,1451.79C2548.96,1460 2531.64,1460 2497,1460L87,1460C52.365,1460 35.047,1460 22.549,1451.79C16.84,1448.04 11.96,1443.16 8.21,1437.452C0,1424.954 0,1407.636 0,1373L0,87Z" fill="#E7F2FF"/>
</g>
</svg>
