<svg width="58" height="54" viewBox="0 0 58 54" fill="none" xmlns="http://www.w3.org/2000/svg" xmlns:xlink="http://www.w3.org/1999/xlink">
<path d="M2.667,0.75L53.333,0.75C54.173,0.75 54.979,1.057 55.573,1.604C56.166,2.151 56.5,2.893 56.5,3.667L56.5,50.333C56.5,51.107 56.166,51.849 55.573,52.396C54.979,52.943 54.173,53.25 53.333,53.25L2.667,53.25C1.827,53.25 1.021,52.943 0.427,52.396C-0.166,51.849 -0.5,51.107 -0.5,50.333L-0.5,3.667C-0.5,2.893 -0.166,2.151 0.427,1.604C1.021,1.057 1.827,0.75 2.667,0.75L2.667,0.75ZM24.843,38.667L47.231,18.043L42.754,13.919L24.843,30.418L15.884,22.167L11.407,26.291L24.843,38.667Z" fill="#365A9F"/>
</svg>
